<svg version="1.1" xmlns="http://www.w3.org/2000/svg"
 width="1024" height="1024" viewBox="0 0 1024.000000 1024.000000"
 preserveAspectRatio="xMidYMid meet">
<metadata>
Created by potrace 1.16, written by Peter Selinger 2001-2019
</metadata>
<g transform="translate(0.000000,1024.000000) scale(0.100000,-0.100000)"
fill="#000000" stroke="none">
<path d="M2730 8420 c-110 -20 -182 -113 -248 -320 -35 -110 -66 -261 -83
-410 -15 -137 -15 -477 0 -610 11 -96 55 -354 66 -390 6 -18 183 -115 193
-105 10 10 3 102 -12 164 -112 437 -123 806 -36 1190 37 163 65 238 107 280
33 33 36 34 96 29 75 -6 170 -51 332 -158 217 -143 349 -254 606 -507 158
-156 200 -193 222 -193 38 0 77 41 77 81 0 27 -21 53 -157 191 -486 492 -954
797 -1163 758z"/>
<path d="M7343 8400 c-237 -84 -562 -319 -918 -662 -156 -150 -235 -240 -235
-268 0 -10 12 -32 26 -49 47 -56 63 -47 219 110 388 391 811 698 989 716 88 9
122 -24 171 -170 67 -201 102 -482 92 -747 -7 -186 -22 -290 -72 -500 -64
-270 -64 -271 64 -205 63 33 93 54 96 69 67 284 94 597 76 861 -19 274 -74
540 -141 681 -36 74 -103 152 -147 170 -45 19 -158 16 -220 -6z"/>
<path d="M4897 8100 c-285 -21 -696 -128 -917 -238 -45 -22 -56 -32 -58 -56
-4 -36 31 -76 67 -76 14 0 78 21 141 46 443 175 913 228 1395 158 183 -26 453
-102 630 -176 97 -41 99 -41 134 -12 35 30 41 72 14 96 -30 26 -239 105 -403
152 -318 93 -674 130 -1003 106z"/>
<path d="M5052 7858 c-9 -9 -12 -81 -12 -265 0 -239 1 -253 19 -263 31 -16 87
-12 112 9 l24 19 0 242 c0 228 -1 242 -19 256 -24 17 -107 19 -124 2z"/>
<path d="M2908 7833 c-27 -31 -40 -123 -45 -329 -5 -194 5 -350 28 -436 10
-38 35 -71 49 -66 19 7 429 360 434 374 3 9 6 20 6 25 0 11 -212 249 -325 366
-85 88 -116 101 -147 66z"/>
<path d="M7260 7835 c-28 -15 -368 -384 -387 -420 -22 -40 -37 -25 299 -307
79 -66 134 -105 143 -102 20 8 43 76 55 167 15 114 12 435 -4 545 -19 124 -44
152 -106 117z"/>
<path d="M6939 6772 c-8 -4 -383 -283 -832 -620 -634 -476 -818 -619 -824
-640 -4 -18 1 -39 16 -67 l22 -40 -28 -22 c-23 -19 -35 -21 -63 -15 -75 16
-172 8 -225 -18 -124 -62 -126 -173 -3 -254 103 -68 169 -69 277 -4 70 42 95
76 97 133 1 25 7 52 14 61 12 13 16 12 40 -11 19 -18 37 -25 66 -25 38 0 49 7
160 113 65 62 223 209 349 327 127 117 372 346 545 509 173 163 351 330 396
371 84 78 104 105 104 144 0 46 -62 79 -111 58z"/>
<path d="M2847 6564 c-20 -19 -51 -37 -68 -41 -16 -3 -28 -10 -26 -16 4 -13
328 -187 349 -187 28 0 69 59 66 94 -3 28 -14 37 -138 108 -74 43 -137 78
-140 78 -3 -1 -22 -16 -43 -36z"/>
<path d="M7235 6534 c-137 -75 -165 -97 -165 -132 0 -34 37 -82 63 -82 25 0
349 172 355 188 1 5 -9 13 -23 16 -14 4 -43 22 -64 41 -21 19 -40 35 -42 35
-2 0 -58 -30 -124 -66z"/>
<path d="M2379 6570 c-34 -20 -162 -333 -228 -558 -91 -309 -124 -711 -86
-1062 44 -411 188 -816 417 -1175 409 -638 1107 -1112 1903 -1290 243 -54 361
-67 665 -72 293 -5 431 4 650 43 254 46 674 178 732 231 23 20 20 28 -32 97
l-41 54 -112 -45 c-357 -141 -735 -213 -1117 -213 -479 0 -879 86 -1320 285
-369 166 -761 465 -1003 766 -169 209 -330 487 -420 725 -244 641 -220 1374
64 2011 66 146 67 168 10 198 -34 17 -59 19 -82 5z"/>
<path d="M7777 6564 c-51 -28 -52 -56 -8 -153 274 -596 325 -1247 146 -1872
-166 -578 -571 -1122 -1085 -1457 -63 -42 -119 -78 -123 -82 -6 -5 52 -96 89
-139 6 -7 152 89 273 179 370 276 660 626 852 1025 290 602 346 1307 157 1980
-45 163 -170 477 -206 518 -18 21 -57 21 -95 1z"/>
<path d="M3515 6085 c-48 -47 -29 -105 98 -295 119 -177 208 -291 302 -385
100 -100 161 -136 243 -143 76 -6 135 14 214 74 60 46 73 52 95 43 38 -14 60
-11 82 12 43 46 35 170 -15 236 -54 71 -363 249 -674 388 -221 99 -301 115
-345 70z m706 -361 c36 -38 34 -107 -4 -140 -35 -30 -52 -30 -82 1 -49 48 -21
165 39 165 12 0 33 -12 47 -26z"/>
<path d="M6185 5760 c-13 -14 -15 -24 -9 -28 19 -12 34 -50 34 -87 0 -37 -35
-85 -62 -85 -23 0 -59 31 -72 61 l-12 28 -124 -118 -124 -118 52 -52 c31 -31
79 -65 120 -84 59 -28 77 -32 152 -32 99 0 169 27 239 91 113 101 132 271 39
349 -37 31 -111 69 -153 79 -16 4 -37 9 -46 12 -9 2 -24 -5 -34 -16z"/>
<path d="M2332 5378 c-17 -17 -16 -123 2 -137 9 -8 88 -11 267 -9 l254 3 0 75
0 75 -255 3 c-191 2 -259 -1 -268 -10z"/>
<path d="M7384 5377 c-3 -8 -4 -43 -2 -78 l3 -64 249 -5 c162 -3 254 -1 263 5
10 8 13 29 11 80 l-3 70 -258 3 c-211 2 -258 0 -263 -11z"/>
<path d="M4965 4913 c-157 -22 -282 -92 -301 -169 -30 -120 109 -299 316 -408
71 -38 72 -39 67 -72 -26 -161 -216 -268 -415 -234 -83 14 -190 63 -249 114
-55 48 -120 146 -138 211 -19 63 -43 88 -82 83 -98 -11 -44 -222 96 -370 75
-81 147 -127 256 -164 67 -23 97 -27 180 -27 159 0 278 47 387 151 l37 35 58
-52 c110 -98 218 -135 388 -134 l120 0 54 -71 c30 -39 146 -188 256 -331 218
-281 379 -490 575 -746 218 -284 237 -306 263 -311 37 -7 86 17 97 48 19 49
34 24 -419 659 -275 386 -501 701 -560 782 l-52 71 70 71 c111 113 184 286
150 356 -17 35 -50 43 -83 22 -13 -9 -32 -42 -46 -79 -93 -257 -361 -388 -606
-297 -101 38 -194 150 -194 233 0 10 21 25 56 41 76 34 171 103 229 167 55 61
105 158 105 206 0 108 -100 182 -290 212 -62 9 -263 11 -325 3z"/>
<path d="M2911 4225 c-101 -57 -191 -111 -202 -121 -25 -23 -24 -42 6 -87 19
-27 33 -37 52 -37 15 0 108 46 215 106 211 119 220 128 174 189 -49 63 -45 64
-245 -50z"/>
<path d="M7112 4304 c-29 -20 -55 -70 -47 -93 7 -24 373 -231 407 -231 17 0
34 11 52 34 30 40 33 67 9 88 -26 23 -372 218 -386 218 -7 0 -23 -7 -35 -16z"/>
<path d="M3922 3522 c-17 -11 -202 -387 -202 -412 0 -42 72 -82 113 -62 28 13
223 392 214 415 -3 9 -29 28 -56 42 -57 29 -52 27 -69 17z"/>
<path d="M5052 3238 c-9 -9 -12 -81 -12 -264 0 -220 2 -253 16 -258 27 -10
110 -6 122 6 17 17 17 499 0 516 -16 16 -110 16 -126 0z"/>
</g>
</svg>
